<?xml version="1.0" encoding="utf-8"?>
<!-- Generator: Adobe Illustrator 22.0.0, SVG Export Plug-In . SVG Version: 6.00 Build 0)  -->
<svg version="1.1" id="图层_1" xmlns="http://www.w3.org/2000/svg" xmlns:xlink="http://www.w3.org/1999/xlink" x="0px" y="0px"
	 viewBox="0 0 200 200" style="enable-background:new 0 0 200 200;" xml:space="preserve">
<style type="text/css">
	.st0{fill:#FFFFFF;}
</style>
<path class="st0" d="M132.9,78.3c2,0,4,0.2,6,0.3c-5.5-25.5-32.1-44.4-62.6-44.4c-34.1,0-62.1,23.7-62.1,53.9
	c0,17.2,9.3,31.5,24.9,42.6l-6.1,19.1l21.5-11.1c7.8,1.5,14.1,3.2,21.9,3.2c1.8,0,3.8,0,5.8-0.2c-1.3-4.3-2-8.8-2-13.3
	C80,100.7,103.4,78.3,132.9,78.3L132.9,78.3L132.9,78.3z M99.4,61.1c4.6,0,7.8,3.1,7.8,8c0,4.8-3.1,8-7.8,8c-4.6,0-9.3-3.1-9.3-8
	C90.1,64.2,94.8,61.1,99.4,61.1C99.4,61.1,99.4,61.1,99.4,61.1z M56,77c-4.6,0-9.3-3.1-9.3-8c0-4.8,4.6-8,9.3-8c4.6,0,7.8,3.1,7.8,8
	C63.8,73.8,60.6,77,56,77L56,77z"/>
<path class="st0" d="M189.4,127.5c0-25.2-24.7-45.9-52.7-45.9c-29.5,0-52.7,20.7-52.7,45.9c0,25.4,23.2,45.9,52.7,45.9
	c6.3,0,12.4-1.7,18.7-3.2l16.9,9.4l-4.6-15.7C180.1,154.3,189.4,141.7,189.4,127.5L189.4,127.5L189.4,127.5z M119.6,119.5
	c-3.1,0-6.1-3-6.1-6.3c0-3.2,3-6.3,6.1-6.3c4.6,0,7.8,3.1,7.8,6.3C127.4,116.6,124.3,119.5,119.6,119.5L119.6,119.5z M153.8,119.5
	c-3.1,0-6.1-3-6.1-6.3c0-3.2,3-6.3,6.1-6.3c4.6,0,7.8,3.1,7.8,6.3C161.5,116.6,158.4,119.5,153.8,119.5L153.8,119.5z"/>
</svg>
