<?xml version="1.0" encoding="utf-8"?>
<!-- Generator: Adobe Illustrator 22.0.0, SVG Export Plug-In . SVG Version: 6.00 Build 0)  -->
<svg version="1.1" id="图层_1" xmlns="http://www.w3.org/2000/svg" xmlns:xlink="http://www.w3.org/1999/xlink" x="0px" y="0px"
	 viewBox="0 0 270.5 200" style="enable-background:new 0 0 270.5 200;" xml:space="preserve">
<style type="text/css">
	.st0{fill:#FFFFFF;}
</style>
<path class="st0" d="M270.4,199.9c-7.8-3.3-15.6-6.5-23.3-9.9c-23.9-10.6-47.8-21.2-71.7-31.9c-5.3-2.4-10.5-4.8-15.7-7.4
	c-1.1-0.6-1.8-0.5-2.7,0.4c-14.4,14.9-31,26.9-50.6,34.9c-11.9,4.9-24.3,8-37.2,9c-15,1.1-29.2-1.4-42.5-8.5
	c-9-4.8-15.7-11.7-21.1-20c-4.9-7.4-6.4-15.6-5.5-24.1c1.2-11,6.4-20.2,15.1-27.5c9.7-8.2,21.1-12.7,33.8-14.7
	c7.9-1.2,15.8-1.7,23.7-0.9c8.2,0.8,16.3,2.1,24.4,3.7c16.2,3.2,31.9,7.8,47.5,13.1c1,0.4,1.4,0.1,1.8-0.8c6.4-13.2,11.2-27,15.3-41
	c0-0.1,1.7-3,1.7-3.3c-38,0-82.8,0-120.9,0c0-3.6,0-3.5,0-7.1c18.6,0,45.3,0,64,0c0-6.9,0-14.4,0-21.3c-22.4,0-48,0-70.5,0
	c0-3.8-0.6-10.5-0.6-14.2c22.4,0,48.5,0,71.1,0c0-0.6,0,0.5,0,0c0-8.2,0-13.1,0-21.3c0-4.1,2.7-7.1,7.1-7.1c9.9,0,18.6,0,28.4,0
	c0.4,0-0.5,0,0,0c0,10.4,0,18,0,28.4c24.2,0,46.9,0,71.1,0c0,3.8-0.8,10.3-0.8,14.1c-24.1,0-46.1,0.1-70.3,0.1c0,6.9,0,14.4,0,21.3
	c20.7,0,43.1,0,64,0c-6.3,22.4-18.9,42.8-30.9,63c1.3,0.5,2.5,0.9,3.7,1.3c25.6,8.6,51.6,16.2,77.8,22.9c4,1,8,2,12,3
	c0.4,0.1,0.9,0.1,1.4,0.1C270.4,169.5,270.4,184.7,270.4,199.9z M135.1,135.1C134.5,134.7,135.5,135.3,135.1,135.1
	c-5.6-2.7-15.6-4.6-21.3-7.1c-16-7-31.6-12.4-49.8-14.2c-11.9-0.6-24.2,3.3-35.6,7.1c-7.6,2.5-10.9,7.4-14.2,14.2
	c-4.3,8.6-2.8,19.5,7.1,28.4c10.8,9.9,20.9,14.3,35.6,14.2c8.8-0.1,20.3-3.9,28.4-7.1c16.4-6.5,30.9-15.7,42.7-28.4
	C130.2,139.9,133,137.6,135.1,135.1z"/>
</svg>
